<?xml version="1.0" standalone="no"?>
<!DOCTYPE svg PUBLIC "-//W3C//DTD SVG 20010904//EN"
 "http://www.w3.org/TR/2001/REC-SVG-20010904/DTD/svg10.dtd">
<svg version="1.0" xmlns="http://www.w3.org/2000/svg"
 width="512.000000pt" height="512.000000pt" viewBox="0 0 512.000000 512.000000"
 preserveAspectRatio="xMidYMid meet">
<metadata>
Created by potrace 1.16, written by Peter Selinger 2001-2019
</metadata>
<g transform="translate(0.000000,512.000000) scale(0.100000,-0.100000)"
fill="#000000" stroke="none">
<path d="M2220 4690 c-66 -12 -137 -38 -200 -73 -69 -39 -180 -148 -210 -207
-12 -24 -72 -118 -131 -207 l-109 -163 -291 0 c-265 0 -293 -2 -327 -19 -84
-43 -123 -135 -91 -218 15 -42 79 -102 119 -113 22 -6 602 -10 1590 -10 1490
0 1557 1 1595 19 71 33 105 86 105 164 -1 61 -31 120 -76 148 -38 24 -44 24
-343 29 l-303 5 -98 183 c-109 203 -129 233 -210 310 -70 67 -209 138 -300
152 -75 11 -653 11 -720 0z m725 -357 c54 -29 72 -50 148 -178 l66 -110 -299
-3 c-165 -1 -435 -1 -599 0 l-300 3 64 103 c69 113 85 134 129 165 63 45 83
47 426 44 311 -2 327 -3 365 -24z"/>
<path d="M1093 2558 c3 -791 4 -851 30 -1193 15 -198 33 -399 41 -447 38 -240
226 -433 468 -482 112 -23 1735 -24 1853 -1 176 33 340 158 419 318 51 104 60
164 97 687 37 522 44 817 34 1463 l-7 487 -1470 0 -1469 0 4 -832z"/>
</g>
</svg>
